<svg width="240" height="57" viewBox="0 0 240 57" fill="none" xmlns="http://www.w3.org/2000/svg">
<path d="M21.68 48.024C8.56 48.024 0.688 38.36 0.688 24.344C0.688 10.648 8.688 0.535999 22.256 0.535999C34.032 0.535999 40.112 6.808 42.096 16.472L32.048 16.92C31.088 11.864 28.272 8.728 22.32 8.728C14.512 8.728 10.736 15.448 10.736 24.344C10.736 33.432 14.32 39.832 22.512 39.832C28.528 39.832 32.24 35.928 32.688 30.488H22.32V23.384H42.224V47H36.208L35.888 40.536C33.52 45.08 28.08 48.024 21.68 48.024ZM49.474 47V12.696H58.562L58.818 19.544C60.162 14.744 62.786 12.696 66.946 12.696H70.082V20.632H66.946C61.57 20.632 59.074 22.616 59.074 27.736V47H49.474ZM89.651 47.768C79.155 47.768 72.243 40.728 72.243 29.848C72.243 19.032 79.155 11.928 89.651 11.928C100.147 11.928 107.059 19.032 107.059 29.848C107.059 40.728 100.147 47.768 89.651 47.768ZM89.651 40.408C94.451 40.408 97.203 36.504 97.203 29.848C97.203 23.192 94.451 19.288 89.651 19.288C84.851 19.288 82.099 23.192 82.099 29.848C82.099 36.504 84.851 40.408 89.651 40.408ZM119.083 47L108.907 12.696H118.571L124.458 35.928L130.795 12.696H138.603L144.939 35.928L150.891 12.696H160.555L150.379 47H141.035L134.699 25.56L128.363 47H119.083ZM165.282 8.472V0.791996H175.202V8.472H165.282ZM165.474 47V12.696H175.074V47H165.474ZM185.374 47V21.144H180.382V13.976H185.374V12.248C185.374 5.464 188.958 1.56 196.702 1.56H203.998V8.728H198.75C196.062 8.728 194.974 10.072 194.974 12.696V13.976H203.486V21.144H194.974V47H185.374ZM213.103 56.6V49.432H217.647C219.823 49.432 220.719 48.92 221.359 47.256L222.062 45.272H219.439L207.407 12.696H217.199L225.071 36.312L232.431 12.696H242.222L229.039 50.264C227.503 54.808 224.815 56.6 219.631 56.6H213.103Z" fill="#14BD95"/>
</svg>
